<svg width="98" height="10" viewBox="0 0 98 10" fill="none" xmlns="http://www.w3.org/2000/svg">
<path d="M7.39478 9.08865L6.35279 6.74926H2.81751L1.74846 9.08865H0.109375L3.11944 2.53906H4.75853L7.6798 9.08865H7.39478ZM4.60714 2.85706L2.94184 6.47778H6.22847L4.60798 2.85706H4.60714Z" fill="white"/>
<path d="M13.9021 9.22905C12.9311 9.22905 12.6021 8.54567 12.2452 7.71344C12.1386 7.46986 12.0228 7.20852 11.8798 6.95564L11.6041 6.33822H8.33608V9.08865H8.07812V2.53906H8.33608V2.54836H11.2751C13.4123 2.54836 13.6619 3.18438 13.6619 5.07466C13.5993 5.88828 13.0208 6.33738 12.2638 6.33738H11.89L12.5311 7.73119C12.718 8.14308 12.9852 8.67591 13.3329 8.85437C13.288 8.76049 13.2618 8.65815 13.2618 8.54566C13.2618 8.16169 13.5553 7.86229 13.9122 7.86229C14.2691 7.86229 14.5626 8.16169 14.5626 8.53636C14.5626 8.91104 14.2505 9.22905 13.9037 9.22905H13.9021ZM13.403 5.08396C13.403 4.40989 12.762 4.17646 12.0583 4.17646H8.33608V6.06674H12.2638C12.8423 6.06674 13.4039 5.72082 13.4039 5.08396H13.403Z" fill="white"/>
<path d="M14.25 4.17646V2.53906H20.4664V4.17646H17.4834V9.08865H17.2254V4.17646H14.2508H14.25Z" fill="white"/>
<path d="M29.9698 5.81995C29.9698 7.71023 28.5184 9.23515 26.6392 9.23515H26.3009C24.386 9.23515 22.9609 7.71023 22.9609 5.81995C22.9609 3.92967 24.386 2.41406 26.3009 2.41406H26.6392C28.5184 2.41406 29.9698 3.93898 29.9698 5.81995ZM26.2298 7.59775H26.7111C28.3679 7.59775 29.7389 6.80273 29.7389 5.81995C29.7389 4.83718 28.3671 4.05146 26.7111 4.05146H26.2298C24.5645 4.05146 23.1927 4.84648 23.1927 5.81995C23.1927 6.79343 24.5645 7.59775 26.2298 7.59775Z" fill="white"/>
<path d="M30.7573 9.07935H30.5078V2.53906H35.5486V4.17646H30.7573V5.67346H34.8271V5.94494H30.7573V9.07935Z" fill="white"/>
<path d="M37.9531 9.08865L41.7734 2.53906H43.2425V8.18115L46.5376 2.53906H48.0067V9.08865H47.7488V3.41865L44.4537 9.08865H42.9846V3.41865L39.6895 9.08865H37.9531Z" fill="white"/>
<path d="M55.6908 9.08865L54.6488 6.74926H51.1135L50.0445 9.08865H48.4062L51.4163 2.53906H53.0546L55.9758 9.08865H55.6908ZM52.9032 2.85706L51.2379 6.47778H54.5237L52.9032 2.85706Z" fill="white"/>
<path d="M62.1989 9.22905C61.228 9.22905 60.899 8.54567 60.5421 7.71344C60.4355 7.46986 60.3196 7.20852 60.1767 6.95564L59.901 6.33822H56.633V9.08865H56.375V2.53906H56.633V2.54836H59.572C61.7092 2.54836 61.9587 3.18438 61.9587 5.07466C61.8961 5.88828 61.3176 6.33738 60.5607 6.33738H60.1869L60.8279 7.73119C61.0148 8.14308 61.2821 8.67591 61.6297 8.85437C61.5849 8.76049 61.5587 8.65815 61.5587 8.54566C61.5587 8.16169 61.8522 7.86229 62.2091 7.86229C62.566 7.86229 62.8595 8.16169 62.8595 8.53636C62.8595 8.91104 62.5474 9.22905 62.2006 9.22905H62.1989ZM61.6999 5.08396C61.6999 4.40989 61.0588 4.17646 60.3552 4.17646H56.633V6.06674H60.5607C61.1392 6.06674 61.7008 5.72082 61.7008 5.08396H61.6999Z" fill="white"/>
<path d="M68.6013 8.85522C68.5565 8.76134 68.5303 8.659 68.5303 8.54651C68.5303 8.16253 68.8238 7.86314 69.1807 7.86314C69.5376 7.86314 69.8311 8.16254 69.8311 8.52706C69.8311 8.91104 69.4928 9.22905 69.0919 9.22905C68.2639 9.22905 67.9789 8.75204 67.5957 7.90966L66.8117 6.20714L64.8165 9.08865H63.2578V2.53906H63.5158V8.34015L67.5416 2.53906H69.3583L66.9893 5.96356L67.8266 7.79717C68.0228 8.22766 68.3341 8.74188 68.6013 8.85437V8.85522Z" fill="white"/>
<path d="M70.2734 9.08865V2.53906H75.5721V4.17646H70.5136V5.68276H74.8423V5.95424H70.5136V7.45125H75.5721V9.08865H70.2734Z" fill="white"/>
<path d="M75.9609 4.17646V2.53906H82.1773V4.17646H79.1943V9.08865H78.9363V4.17646H75.9618H75.9609Z" fill="white"/>
<path d="M82.9778 1.89693C82.5862 1.89693 82.2656 1.56031 82.2656 1.14843C82.2656 0.736539 82.5862 0.390625 82.9778 0.390625C83.3693 0.390625 83.6899 0.727235 83.6899 1.14843C83.6899 1.56962 83.3693 1.89693 82.9778 1.89693ZM83.1021 2.54225V9.09184H82.8441V2.54225H83.1021Z" fill="white"/>
<path d="M84.0469 2.53906H85.6056L90.3081 8.29363V2.53906H90.566V9.08865H89.0073L84.3048 3.33407V9.08865H84.0469V2.53906Z" fill="white"/>
<path d="M94.2509 7.59775H94.7322C95.7919 7.59775 97.5824 7.14864 97.7422 6.03562H94.7592V5.76413H98.001V9.09475H97.7431V7.15795C97.2441 8.37415 96.0507 9.23515 94.7059 9.23515H94.2873C92.5061 9.23515 90.9922 7.78466 90.9922 5.81065C90.9922 3.83664 92.4968 2.41406 94.2873 2.41406H94.7059C96.1928 2.41406 97.5646 3.49918 97.9122 5.01478L97.5029 5.09936C97.0216 4.48195 95.9619 4.05146 94.733 4.05146H94.2518C92.5949 4.05146 91.2239 4.84648 91.2239 5.82926C91.2239 6.81203 92.5958 7.59775 94.2518 7.59775H94.2509Z" fill="white"/>
</svg>
