<svg width="62" height="58" viewBox="0 0 62 58" fill="none" xmlns="http://www.w3.org/2000/svg">
<path d="M14.0488 15.099L10.9051 11.71L5.04116 4.96543L5.03002 4.93199L1.74134 1.11936C1.61871 0.91869 1.51838 0.751465 1.46264 0.606541C1.3846 0.461616 1.31771 0.338993 1.25082 0.249808C1.18394 0.149476 1.1059 0.104884 1.01672 0.0825876H1.00557C0.760316 0.0379954 0.648838 0.327839 0.659986 0.940982V0.952134C0.648838 1.07476 0.659981 1.26428 0.682277 1.53183C0.704573 1.81054 0.69343 2.06694 0.659986 2.2899C0.615394 2.51286 0.615396 2.85845 0.648841 3.33781L0.659986 4.63099L0.671131 4.76477L0.715726 9.20169C0.682282 9.42465 0.682282 9.68106 0.715726 9.98206V13.0924H0.693422L0.704581 29.5469L0.682277 29.6026L0.726872 42.5678L0.738017 42.657L0.726872 43.3482L0.738017 43.3705L0.782612 54.4293L0.749162 56.2353C0.726866 56.5252 0.816053 56.7258 1.01672 56.8262C1.13935 56.8931 1.30657 56.9265 1.50724 56.9377H2.44367C3.447 57.0157 3.9598 56.8262 3.97095 56.3468L4.06014 53.7716L4.049 43.939L4.10474 42.5344L4.09358 39.8811L4.16048 37.9302L4.18277 31.0184H4.16048L4.23851 19.4356L4.17162 15.478V15.4557L4.20506 13.215C4.2831 12.7022 4.13817 12.1336 3.75914 11.5093C3.48044 10.9854 3.4024 10.5618 3.53618 10.2608C3.77029 10.0155 4.10473 10.1381 4.51721 10.6175L5.4202 11.5651L5.47594 11.6097L11.3175 17.3063L16.1781 22.3341L18.2182 24.6083L22.9226 29.6249L27.2258 34.0173L27.2146 34.0396L28.519 35.3439L30.4922 37.54C30.8043 38.064 31.083 38.2981 31.3171 38.2535C31.5735 38.2312 31.7853 38.064 31.9637 37.7519L31.9526 37.7296C32.0752 37.4954 32.209 37.3171 32.3651 37.2056L33.4353 36.0685L39.9792 29.4354L42.978 26.2471L43.0115 26.2359L50.4137 18.4323L52.0414 16.6486H52.0637L54.6946 13.7612C56.1773 12.39 57.136 11.7992 57.5485 11.9664C57.8272 12.1448 57.9498 12.6241 57.9387 13.4157L57.8941 14.6085L58.0056 22.8246L58.0279 27.0274L58.0502 27.072L58.1505 34.898L58.1171 34.9091L58.1839 54.2733C58.1951 54.8976 58.1505 55.533 58.0613 56.1573V56.1907C57.9944 56.6032 58.2731 56.8819 58.8974 56.9934L60.4359 57.0157C60.447 57.0157 60.4582 57.0157 60.4582 57.0268C61.272 57.1049 61.6733 56.8708 61.6733 56.2911L61.7179 55.2766L61.9854 20.4278L61.9409 13.5271L61.9966 11.9887L61.9074 3.67226V1.77709C61.9408 1.33116 61.8851 1.01902 61.7402 0.851799C61.4949 0.651134 61.2385 0.718025 60.9821 1.06361L60.5808 1.62102L58.5853 3.99555L54.9064 7.89737L53.4126 9.56958L51.6958 11.632L48.6412 14.9652L47.9389 15.6341L40.6258 23.2371L38.8755 25.2549H38.8644C38.4184 25.8346 37.8945 26.4031 37.3148 26.9605L36.7462 27.5068L34.7619 29.6807L31.7073 32.4454C31.2057 32.7798 30.7597 32.6795 30.3584 32.1221L30.325 32.0998C29.4777 31.1076 28.2514 29.8479 26.6684 28.3095L23.4578 24.8759L14.0488 15.099Z" fill="white"/>
</svg>
