<svg width="58" height="58" viewBox="0 0 58 58" fill="none" xmlns="http://www.w3.org/2000/svg">
<path d="M46.4693 8.73631L46.6365 8.51335C42.98 4.84564 38.7994 2.4488 34.0838 1.334C32.0326 0.854632 29.881 0.609375 27.6291 0.609375C25.3772 0.609375 23.2368 0.854632 21.1855 1.334C16.4922 2.4488 12.3117 4.84564 8.66626 8.51335C3.41553 13.8087 0.784586 20.1854 0.773438 27.6434C0.784586 35.1015 3.41553 41.4558 8.66626 46.7289C8.67741 46.74 8.69971 46.7512 8.71085 46.7735L8.95611 46.4948C5.70087 41.9687 4.07327 36.7625 4.07327 30.8763C4.06212 23.4183 6.67076 17.0528 11.8992 11.7797C17.1499 6.51785 23.482 3.89806 30.9066 3.9092C36.7482 3.88691 41.932 5.51452 46.4247 8.7809L46.4693 8.73631Z" fill="black"/>
<path d="M49.8999 11.7812L49.5877 12.0265C52.8653 16.5638 54.504 21.7699 54.5152 27.6449C54.5152 35.103 51.8842 41.4574 46.6335 46.7304C41.3828 52.0034 35.0507 54.6344 27.6261 54.6232C21.7733 54.6232 16.6006 52.9845 12.0968 49.7181L11.8516 49.941L11.8962 49.9968C17.1469 55.2698 23.479 57.9119 30.9036 57.923C38.317 57.9119 44.6603 55.2698 49.8999 49.9968C55.1618 44.7126 57.7815 38.3359 57.7927 30.8779C57.7815 23.4198 55.1618 17.0543 49.8999 11.7812Z" fill="white"/>
<path d="M11.8516 49.9375C11.8733 49.9593 11.8842 49.9702 11.8951 49.9919L11.8516 49.9375Z" fill="#616D81"/>
</svg>
